<svg width="155" height="155" viewBox="0 0 155 155" fill="none" xmlns="http://www.w3.org/2000/svg">
<path d="M77.3752 154.75C120.108 154.75 154.75 120.108 154.75 77.3752C154.75 34.6421 120.108 0 77.3752 0C34.6421 0 0 34.6421 0 77.3752C0 120.108 34.6421 154.75 77.3752 154.75Z" fill="#4F44F4"/>
<path d="M109.431 111.089H45.3198C44.1475 111.088 43.0235 110.621 42.1946 109.792C41.3657 108.964 40.8995 107.84 40.8983 106.667V67.9797C40.8996 66.8074 41.3658 65.6835 42.1947 64.8546C43.0236 64.0257 44.1475 63.5595 45.3198 63.5582H109.431C110.603 63.5595 111.727 64.0257 112.556 64.8546C113.385 65.6835 113.851 66.8074 113.852 67.9797V106.667C113.851 107.84 113.385 108.964 112.556 109.792C111.727 110.621 110.603 111.088 109.431 111.089ZM45.3198 67.9797V106.667H109.434L109.431 67.9797L45.3198 67.9797Z" fill="white"/>
<path d="M97.2718 67.9797H57.4788V50.2939C57.4788 37.484 65.8467 28.1867 77.3752 28.1867C88.9038 28.1867 97.2717 37.484 97.2717 50.2939L97.2718 67.9797ZM61.9002 63.5582H92.8503V50.2939C92.8503 39.8809 86.4869 32.6081 77.3753 32.6081C68.2637 32.6081 61.9003 39.8809 61.9003 50.2939L61.9002 63.5582Z" fill="white"/>
<path d="M77.3753 90.6395C79.8172 90.6395 81.7967 88.66 81.7967 86.2181C81.7967 83.7762 79.8172 81.7967 77.3753 81.7967C74.9334 81.7967 72.9539 83.7762 72.9539 86.2181C72.9539 88.66 74.9334 90.6395 77.3753 90.6395Z" fill="white"/>
</svg>